<svg width="16" height="16" viewBox="0 0 16 16" fill="none" xmlns="http://www.w3.org/2000/svg">
<g clip-path="url(#clip0_2_15)">
<path d="M-0.25 6.4985C-0.448912 6.4985 -0.639678 6.41948 -0.78033 6.27883C-0.920982 6.13818 -1 5.94741 -1 5.7485V-0.25C-1 -0.448912 -0.920982 -0.639678 -0.78033 -0.78033C-0.639678 -0.920982 -0.448912 -1 -0.25 -1H5.75C5.94891 -1 6.13968 -0.920982 6.28033 -0.78033C6.42098 -0.639678 6.5 -0.448912 6.5 -0.25V5.7485C6.5 5.94741 6.42098 6.13818 6.28033 6.27883C6.13968 6.41948 5.94891 6.4985 5.75 6.4985H-0.25ZM10.25 6.4985C10.0511 6.4985 9.86032 6.41948 9.71967 6.27883C9.57902 6.13818 9.5 5.94741 9.5 5.7485V-0.25C9.5 -0.448912 9.57902 -0.639678 9.71967 -0.78033C9.86032 -0.920982 10.0511 -1 10.25 -1H16.2485C16.4474 -1 16.6382 -0.920982 16.7788 -0.78033C16.9195 -0.639678 16.9985 -0.448912 16.9985 -0.25V5.7485C16.9985 5.94741 16.9195 6.13818 16.7788 6.27883C16.6382 6.41948 16.4474 6.4985 16.2485 6.4985H10.25ZM-0.25 16.9985C-0.448912 16.9985 -0.639678 16.9195 -0.78033 16.7788C-0.920982 16.6382 -1 16.4474 -1 16.2485V10.2485C-1 10.0496 -0.920982 9.85882 -0.78033 9.71817C-0.639678 9.57752 -0.448912 9.4985 -0.25 9.4985H5.75C5.94891 9.4985 6.13968 9.57752 6.28033 9.71817C6.42098 9.85882 6.5 10.0496 6.5 10.2485V16.2485C6.5 16.4474 6.42098 16.6382 6.28033 16.7788C6.13968 16.9195 5.94891 16.9985 5.75 16.9985H-0.25ZM10.25 16.9985C10.0511 16.9985 9.86032 16.9195 9.71967 16.7788C9.57902 16.6382 9.5 16.4474 9.5 16.2485V10.2485C9.5 10.0496 9.57902 9.85882 9.71967 9.71817C9.86032 9.57752 10.0511 9.4985 10.25 9.4985H16.2485C16.4474 9.4985 16.6382 9.57752 16.7788 9.71817C16.9195 9.85882 16.9985 10.0496 16.9985 10.2485V16.2485C16.9985 16.4474 16.9195 16.6382 16.7788 16.7788C16.6382 16.9195 16.4474 16.9985 16.2485 16.9985H10.25Z" fill="#101213"/>
</g>
<defs>
<clipPath id="clip0_2_15">
<rect width="16" height="16" fill="white"/>
</clipPath>
</defs>
</svg>
